<svg width="800" height="600" xmlns="http://www.w3.org/2000/svg">
  <defs>
    <!-- Metal textures and patterns -->
    <pattern id="chainmail" patternUnits="userSpaceOnUse" width="6" height="6">
      <circle cx="3" cy="3" r="2" fill="none" stroke="#999" stroke-width="0.5"/>
      <circle cx="0" cy="0" r="2" fill="none" stroke="#999" stroke-width="0.5"/>
      <circle cx="6" cy="0" r="2" fill="none" stroke="#999" stroke-width="0.5"/>
      <circle cx="0" cy="6" r="2" fill="none" stroke="#999" stroke-width="0.5"/>
      <circle cx="6" cy="6" r="2" fill="none" stroke="#999" stroke-width="0.5"/>
    </pattern>
    
    <pattern id="metalPlate" patternUnits="userSpaceOnUse" width="8" height="8">
      <rect width="8" height="8" fill="#d8d8d8"/>
      <circle cx="2" cy="2" r="0.5" fill="#aaa"/>
      <circle cx="6" cy="2" r="0.5" fill="#aaa"/>
      <circle cx="2" cy="6" r="0.5" fill="#aaa"/>
      <circle cx="6" cy="6" r="0.5" fill="#aaa"/>
      <path d="M0,4 L8,4 M4,0 L4,8" stroke="#bbb" stroke-width="0.3"/>
    </pattern>
    
    <pattern id="crosshatch" patternUnits="userSpaceOnUse" width="4" height="4">
      <path d="M0,0 L4,4 M0,4 L4,0" stroke="#666" stroke-width="0.4" opacity="0.3"/>
    </pattern>
    
    <pattern id="stoneWall" patternUnits="userSpaceOnUse" width="12" height="8">
      <rect width="12" height="8" fill="#e0e0e0"/>
      <path d="M0,4 L12,4 M6,0 L6,8" stroke="#ccc" stroke-width="0.5"/>
      <rect x="1" y="1" width="4" height="2" fill="#d0d0d0"/>
      <rect x="7" y="5" width="4" height="2" fill="#d0d0d0"/>
    </pattern>
    
    <!-- Lighting gradients -->
    <radialGradient id="torchLight" cx="20%" cy="30%" r="80%">
      <stop offset="0%" stop-color="#ffffff"/>
      <stop offset="40%" stop-color="#f0f0f0"/>
      <stop offset="80%" stop-color="#a0a0a0"/>
      <stop offset="100%" stop-color="#404040"/>
    </radialGradient>
    
    <linearGradient id="metalShine" x1="0%" y1="0%" x2="100%" y2="100%">
      <stop offset="0%" stop-color="#f8f8f8"/>
      <stop offset="30%" stop-color="#e0e0e0"/>
      <stop offset="70%" stop-color="#c0c0c0"/>
      <stop offset="100%" stop-color="#888888"/>
    </linearGradient>
  </defs>
  
  <!-- Background with torch lighting -->
  <rect width="800" height="600" fill="url(#torchLight)"/>
  
  <!-- Stone armory walls -->
  <g fill="url(#stoneWall)" stroke="#555" stroke-width="2">
    <!-- Left wall -->
    <rect x="0" y="0" width="200" height="600" fill="#e8e8e8"/>
    
    <!-- Right wall -->
    <rect x="600" y="0" width="200" height="600" fill="#e8e8e8"/>
    
    <!-- Back wall -->
    <rect x="200" y="0" width="400" height="250" fill="#d8d8d8"/>
  </g>
  
  <!-- Weapon racks along the walls -->
  <g>
    <!-- Left wall weapon rack -->
    <g fill="#8b4513" stroke="#654321" stroke-width="2">
      <!-- Rack frame -->
      <rect x="30" y="100" width="140" height="400" fill="#a0522d"/>
      <rect x="35" y="105" width="130" height="390" fill="#cd853f"/>
      
      <!-- Horizontal weapon supports -->
      <rect x="40" y="150" width="120" height="6" fill="#8b4513"/>
      <rect x="40" y="200" width="120" height="6" fill="#8b4513"/>
      <rect x="40" y="250" width="120" height="6" fill="#8b4513"/>
      <rect x="40" y="300" width="120" height="6" fill="#8b4513"/>
      <rect x="40" y="350" width="120" height="6" fill="#8b4513"/>
      <rect x="40" y="400" width="120" height="6" fill="#8b4513"/>
      <rect x="40" y="450" width="120" height="6" fill="#8b4513"/>
    </g>
    
    <!-- Swords on left rack -->
    <g>
      <!-- Long sword -->
      <g transform="translate(60,120) rotate(15)">
        <rect x="-2" y="0" width="4" height="120" fill="url(#metalShine)" stroke="#666" stroke-width="1"/>
        <rect x="-8" y="-15" width="16" height="8" fill="#8b4513" stroke="#654321" stroke-width="1"/>
        <rect x="-1" y="-25" width="2" height="10" fill="url(#metalShine)" stroke="#666"/>
        <path d="M-2,120 L0,140 L2,120" fill="url(#metalShine)" stroke="#666" stroke-width="1"/>
      </g>
      
      <!-- Broad sword -->
      <g transform="translate(90,130) rotate(-10)">
        <rect x="-3" y="0" width="6" height="110" fill="url(#metalShine)" stroke="#666" stroke-width="1"/>
        <rect x="-10" y="-15" width="20" height="8" fill="#8b4513" stroke="#654321" stroke-width="1"/>
        <rect x="-1" y="-25" width="2" height="10" fill="url(#metalShine)" stroke="#666"/>
        <path d="M-3,110 L0,130 L3,110" fill="url(#metalShine)" stroke="#666" stroke-width="1"/>
      </g>
      
      <!-- Scimitar -->
      <g transform="translate(120,125) rotate(20)">
        <path d="M0,0 Q5,30 0,60 Q-3,90 0,100" fill="none" stroke="url(#metalShine)" stroke-width="4"/>
        <rect x="-8" y="-15" width="16" height="6" fill="#8b4513" stroke="#654321" stroke-width="1"/>
        <circle cx="0" cy="105" r="3" fill="url(#metalShine)" stroke="#666"/>
      </g>
    </g>
    
    <!-- Right wall armor stands -->
    <g>
      <!-- Armor stand 1 -->
      <g transform="translate(650,200)">
        <!-- Stand base -->
        <ellipse cx="0" cy="300" rx="25" ry="15" fill="#8b4513" stroke="#654321" stroke-width="2"/>
        <rect x="-3" y="100" width="6" height="200" fill="#a0522d" stroke="#654321" stroke-width="1"/>
        
        <!-- Helmet -->
        <ellipse cx="0" cy="80" rx="20" ry="25" fill="url(#metalShine)" stroke="#666" stroke-width="2"/>
        <rect x="-15" y="85" width="30" height="8" fill="url(#metalPlate)" stroke="#666" stroke-width="1"/>
        <rect x="-5" y="75" width="10" height="3" fill="#333" opacity="0.8"/>
        
        <!-- Breastplate -->
        <ellipse cx="0" cy="150" rx="30" ry="40" fill="url(#metalPlate)" stroke="#666" stroke-width="2"/>
        <ellipse cx="0" cy="145" rx="25" ry="35" fill="url(#metalShine)"/>
        
        <!-- Chainmail visible underneath -->
        <rect x="-25" y="180" width="50" height="60" fill="url(#chainmail)" opacity="0.7"/>
        
        <!-- Gauntlets -->
        <ellipse cx="-35" cy="160" rx="8" ry="15" fill="url(#metalPlate)" stroke="#666" stroke-width="1"/>
        <ellipse cx="35" cy="160" rx="8" ry="15" fill="url(#metalPlate)" stroke="#666" stroke-width="1"/>
      </g>
      
      <!-- Armor stand 2 -->
      <g transform="translate(720,220)">
        <!-- Stand base -->
        <ellipse cx="0" cy="280" rx="20" ry="12" fill="#8b4513" stroke="#654321" stroke-width="2"/>
        <rect x="-2" y="120" width="4" height="160" fill="#a0522d" stroke="#654321" stroke-width="1"/>
        
        <!-- Different style helmet -->
        <path d="M-18,60 Q0,40 18,60 L15,80 L-15,80 Z" fill="url(#metalShine)" stroke="#666" stroke-width="2"/>
        <rect x="-12" y="70" width="24" height="4" fill="#333" opacity="0.6"/>
        
        <!-- Scale armor -->
        <ellipse cx="0" cy="130" rx="28" ry="35" fill="#d0d0d0" stroke="#666" stroke-width="2"/>
        <g fill="#c0c0c0" stroke="#888" stroke-width="0.5">
          <ellipse cx="-10" cy="120" rx="4" ry="6"/>
          <ellipse cx="0" cy="120" rx="4" ry="6"/>
          <ellipse cx="10" cy="120" rx="4" ry="6"/>
          <ellipse cx="-10" cy="130" rx="4" ry="6"/>
          <ellipse cx="0" cy="130" rx="4" ry="6"/>
          <ellipse cx="10" cy="130" rx="4" ry="6"/>
          <ellipse cx="-10" cy="140" rx="4" ry="6"/>
          <ellipse cx="0" cy="140" rx="4" ry="6"/>
          <ellipse cx="10" cy="140" rx="4" ry="6"/>
        </g>
      </g>
    </g>
  </g>
  
  <!-- Central weapon display table -->
  <g>
    <!-- Stone table -->
    <ellipse cx="400" cy="450" rx="80" ry="40" fill="#c0c0c0" stroke="#888" stroke-width="3"/>
    <ellipse cx="400" cy="440" rx="75" ry="35" fill="#d8d8d8"/>
    
    <!-- Table legs -->
    <rect x="340" y="460" width="15" height="80" fill="#b0b0b0" stroke="#777" stroke-width="2"/>
    <rect x="445" y="460" width="15" height="80" fill="#b0b0b0" stroke="#777" stroke-width="2"/>
    
    <!-- Weapons displayed on table -->
    <g>
      <!-- Ornate dagger -->
      <g transform="translate(370,430) rotate(30)">
        <rect x="-1" y="0" width="2" height="40" fill="url(#metalShine)" stroke="#666" stroke-width="0.5"/>
        <rect x="-4" y="-8" width="8" height="4" fill="#8b4513" stroke="#654321" stroke-width="0.5"/>
        <circle cx="0" cy="-12" r="2" fill="#ffd700" stroke="#b8860b" stroke-width="0.5"/>
        <path d="M-1,40 L0,50 L1,40" fill="url(#metalShine)" stroke="#666" stroke-width="0.5"/>
      </g>
      
      <!-- War hammer -->
      <g transform="translate(430,425) rotate(-20)">
        <rect x="-1" y="0" width="2" height="50" fill="#8b4513" stroke="#654321" stroke-width="1"/>
        <rect x="-8" y="-15" width="16" height="10" fill="url(#metalShine)" stroke="#666" stroke-width="1"/>
        <rect x="-6" y="-20" width="12" height="5" fill="url(#metalPlate)" stroke="#666" stroke-width="1"/>
      </g>
    </g>
  </g>
  
  <!-- Wall-mounted shields -->
  <g>
    <!-- Round shield on back wall -->
    <g transform="translate(300,120)">
      <circle cx="0" cy="0" r="35" fill="url(#metalPlate)" stroke="#666" stroke-width="3"/>
      <circle cx="0" cy="0" r="30" fill="#e8e8e8"/>
      <circle cx="0" cy="0" r="20" fill="url(#metalShine)"/>
      <circle cx="0" cy="0" r="10" fill="#d0d0d0"/>
      <circle cx="0" cy="0" r="5" fill="url(#metalPlate)"/>
    </g>
    
    <!-- Kite shield -->
    <g transform="translate(500,130)">
      <path d="M0,-30 Q20,-25 25,0 Q20,25 0,40 Q-20,25 -25,0 Q-20,-25 0,-30" fill="url(#metalPlate)" stroke="#666" stroke-width="3"/>
      <path d="M0,-25 Q15,-20 20,0 Q15,20 0,35 Q-15,20 -20,0 Q-15,-20 0,-25" fill="#f0f0f0"/>
      <path d="M0,-15 L0,25 M-10,0 L10,0" stroke="#999" stroke-width="2"/>
    </g>
  </g>
  
  <!-- Torch brackets with flames -->
  <g>
    <!-- Left torch -->
    <g transform="translate(100,150)">
      <rect x="-2" y="0" width="4" height="15" fill="#666" stroke="#444" stroke-width="1"/>
      <circle cx="0" cy="-5" r="8" fill="#888" stroke="#555" stroke-width="1"/>
      <path d="M-6,-10 Q0,-20 6,-10 Q3,-15 0,-12 Q-3,-15 -6,-10" fill="url(#crosshatch)" stroke="#777"/>
      <path d="M-3,-8 Q0,-15 3,-8 Q2,-12 0,-10 Q-2,-12 -3,-8" fill="#f8f8f8" opacity="0.8"/>
    </g>
    
    <!-- Right torch -->
    <g transform="translate(700,150)">
      <rect x="-2" y="0" width="4" height="15" fill="#666" stroke="#444" stroke-width="1"/>
      <circle cx="0" cy="-5" r="8" fill="#888" stroke="#555" stroke-width="1"/>
      <path d="M-6,-10 Q0,-20 6,-10 Q3,-15 0,-12 Q-3,-15 -6,-10" fill="url(#crosshatch)" stroke="#777"/>
      <path d="M-3,-8 Q0,-15 3,-8 Q2,-12 0,-10 Q-2,-12 -3,-8" fill="#f8f8f8" opacity="0.8"/>
    </g>
  </g>
  
  <!-- Atmospheric shadows and depth -->
  <g fill="#333" opacity="0.4">
    <!-- Equipment shadows -->
    <ellipse cx="660" cy="480" rx="40" ry="20"/>
    <ellipse cx="730" cy="500" rx="30" ry="15"/>
    <ellipse cx="410" cy="520" rx="60" ry="25"/>
    
    <!-- Wall shadows -->
    <rect x="170" y="200" width="30" height="300" opacity="0.3"/>
    <rect x="570" y="200" width="30" height="300" opacity="0.3"/>
  </g>
  
  <!-- Detailed texture overlays -->
  <g fill="url(#crosshatch)" opacity="0.1">
    <rect x="0" y="400" width="800" height="200"/>
  </g>
  
  <!-- Metallic highlights and reflections -->
  <g fill="none" stroke="#fff" stroke-width="1" opacity="0.6">
    <!-- Weapon highlights -->
    <path d="M58,140 L62,240" opacity="0.8"/>
    <path d="M88,140 L92,240" opacity="0.8"/>
    
    <!-- Armor highlights -->
    <ellipse cx="650" cy="150" rx="25" ry="35" opacity="0.4"/>
    <ellipse cx="720" cy="130" rx="23" ry="30" opacity="0.4"/>
    
    <!-- Shield highlights -->
    <circle cx="300" cy="120" r="25" opacity="0.5"/>
    <path d="M480,100 Q500,105 520,130 Q500,155 480,160" opacity="0.5"/>
  </g>
</svg>
